<svg id="Layer_1" data-name="Layer 1" xmlns="http://www.w3.org/2000/svg" viewBox="0 0 537.58 763.58"><defs><style>.cls-1{fill:#fff;}</style></defs><title>westmore-crest</title><path class="cls-1" d="M414,27.36h0S414,27.34,414,27.36Zm-203,90L224.93,133,211.14,150,197.34,133Zm.07,8L204,133.44l7.14,8.75,7.14-8.75ZM422.75,74.18c-2,2-3.49,5.24-2.33,7s2.91,7.85,0,11.63c-.87.58-7.56-1.45-8.73-3.49s-4.94-2.62-7.56-2.62-14.25.29-20.65-1.16c.29.29,1.16,11.05-.29,16.29s4.94,9.89,8.73,10.76,8.44.87,11.93-2.62,8.44,8.14,7.27,11.34c.29.29,3.49,3.49,3.2,7a5.8,5.8,0,0,0,2.62,5.24,7.39,7.39,0,0,1-5.53.58,26.14,26.14,0,0,1,1.45,7c-.87,0-3.2,1.16-5.82.58,0,.29,0,9-2.33,11.34,0,0-5.24-1.75-5.82-4.07a5.32,5.32,0,0,0-2,4.07c0,2.62-3.78,6.11-4.94,6.4s-6.69,0-7.85-4.36c0,0-10.18-1.16-7.56,4.36,0,.29-6.69,2-6.11-4.65.29,0-5.53-.58-3.78,4.65-.29-.58-7.85-.87-5.82-4.94s6.11-7.27,10.18-6.69,9.31.87,9.31.87.87-2.33,4.65-2.62,3.2-4.36,3.2-6.11-1.75-12.51,2.62-15.42c0,0-18,1.16-23.85-9.89C354.39,96,359.63,84.95,342.47,83.78c0,0,3.49,1.75,1.75,7.85,0,.29-10.47-3.2-11.34.58s2.91,7.27,2.91,7.27,2,2.33,5.53-.29c-.58,0,.29,5.53,3.2,5.24s7-.58,7.85,3.49c-.29,1.45-7,.87-5.53,7.27s-.87,10.47,5.53,12.51.58,7.85.58,7.85-6.11-3.78-7.56-.87a4.69,4.69,0,0,0,.87,5.24,4.35,4.35,0,0,1-6.4.58s-3.49.87-4.36,3.78-6.4,8.14-9.6,6.11-4.07,1.16-4.07,1.16-7.56,2.62-8.44-5.24c-.29,0-6.69-1.75-6.4,2.62s-3.2,5.82-5.53,4.94-4.94-.29-4.94,1.45-5.53-5.53,6.69-13.09,16.58-1.75,16.58-1.75,9.31-5.24,10.76-10.18c.29,0,.58-3.2,2.33-3.78.29.29-1.45-3.78-4.36-4.94s-8.44-5.53-8.14-11.05A38.46,38.46,0,0,1,324.44,96a11.86,11.86,0,0,0-11.63,2.62c-5.24,4.94-20.07,11.34-30.54,7.56.58.58-2.33,12.22,6.11,14.83-.29.29-3.49,4.94-11.05,2,.58.29-4.65,3.78-2,7.56s1.75,6.11,1.45,7.85c-.29-.58-4.07.29-6.11-1.16,0,.58-5.53,4.07-3.78,9-.29.29-6.69,1.45-8.73-3.2-.29.29.58,10.76-4.07,12.8s-7.56-.58-7.56-.58a6.69,6.69,0,0,1-4.36,2.33c-.87-.29-3.2-4.65-3.78-6.4.58,1.16-6.11.29-5.24,4.36-.58.58-5.24,1.45-6.69-4.07S238,142,242.7,142c.29,0,6.4-4.07,7.27-6.69s5.82-7.85,7.27-10.18,1.16-8.14-1.75-13.67-7-1.75-6.69,1.45c-.29.29-7.56-1.16-7.85-6.11.29,0-7.27-1.45-9.89,2.33,0,0-5.53-4.07-4.94-7,.53-2.67-16,2.25-14.31,7.34l20.78,23.46-18.12,22.21c0,5,.22,15.4,1.76,16.5,2,1.45,8.44,6.4,8.44,6.4a8.9,8.9,0,0,1-5.24,4.36c-3.78,1.16-8.14-1.75-9.89-2s-4.07,2-4.07,2a5.8,5.8,0,0,1-2.62-5.24c.29-3.49,6.4-6.4,6.4-6.4V156.9l-19.56-24,9.21-10.59C195.35,121.28,187,118,186.56,110c-.58-10.18,14.25-18,20.36-18.62s14.25-1.45,16.87-.58c0,.58-3.78-10.47,3.2-16.58s10.47-6.4,10.47-6.4l4.07-.29s0-7.27-.87-8.44-2-7-1.75-9c-.58.58-2.91-2.62-2.33-4.65a15.94,15.94,0,0,1,2.91-4.65s-.58-1.16-1.75-6.69-2.33-10.47,5.82-11.34c0,0-.29,4.36,2.33,3.2A26.69,26.69,0,0,0,254,20.08c2.91-2.91,5.82-3.49,7-2.91s.29,5.53,3.49,4.94,3.49-3.2,5.53-3.2,3.2.58,5.82,2.91a7.3,7.3,0,0,0,6.69,1.75c1.45-.29,4.94-.87,4.94,4.65s0,9.31,3.49,9.31,5.53,3.78,5.53,4.94-3.78,2.91-4.36,4.94-2.33,9.31-7.27,11.63c.29,0,.87,8.73-3.2,12.8s-3.49,7.85-3.49,7.85-4.07,10.76-13.38,10.47c.58,0-.58,2.33,0,6.11s-2.91,5.53-2.91,5.53,3.2,4.07,5.53,1.45.87-4.65,2.91-5.82,4.07-2.91,3.49-6.4c-.58-.87,1.45-1.75,4.36.29s4.94,2.91,7.27,2.91c0-.29-4.36-4.94-3.49-7.85a28.35,28.35,0,0,0,1.45-8.14c0-.29-.29-2.91,1.75-3.2s3.78-2.33,3.78-3.49c0,0,11.63,2.91,22.69-.29s19.49-10.76,41-7.85,18.91,12.51,39,14.83,16.87-6.4,14-10.47-18-14-41.59-12.22-37.81.58-53.23-11.05-5.24-27.92,3.78-29.38,14.54-1.16,21.23.58,13.09.58,14.83-1.16c.29,0,2.91,6.4-13.09,7.85.29,0-.58,9.31-3.49,11.93,0,.58-4.07-4.07-4.07-6.4s-2.33-6.11-9.31-5.53S307.27,27.94,314,37.24,336.07,50,343.34,50s15.13.29,22.11-.29c-.58.29-16-11.34-8.14-23s21.82-8.44,26.47-7.85c10.76,1.75,10.18,8.14,18.91,8.44s8.15.87,11.33,0c0,.27,2.26,6.38-18.89,6.1,0,.29-.58,7.85-3.78,10.18-.29-.29,0-14.83-16.29-17.74s-14,9-12.22,11.63,6.69,9.89,22.4,13.38,25.89,7.56,28.21,13.67,8.73-2,8.73-3.78C422.17,60.51,430.6,65.17,422.75,74.18ZM211,117.32,197.34,133,211.14,150,224.93,133Zm30.24-38.19c1.16-2.91-1.45-6.69-3.78-5.53s-9.6,5.24-7.56,9.31,4.07,1.45,4.07-.58S241.25,79.13,241.25,79.13Zm2.91,5.82s-5.24,0-6.11,2.62-2.91,5.53,0,9.31C238.34,97.16,246.48,94.84,244.16,84.95Zm2.42-44c.39,5.43,1.94,7,6.59,7.76s9.7-3.49,9.7-3.49A10.71,10.71,0,0,0,272.18,51c7,.39,8.53-5.43,8.14-5.82-6.59-2.71-15.13-1.94-18.23-3.49S246.58,40.93,246.58,40.93Zm8.34,33c.58-.29,1.45-2.62.29-3.78s-2.33-3.2-1.75-5.24,5.53-2,5.53-2,6.4,1.16,5.82,3.49-3.49,2.62-2.62,4.94c0,2.33,1.16,4.94,4.65,4.36s8.44-4.36,8.73-7.56a7.4,7.4,0,0,1,2.62-4.94,3.74,3.74,0,0,0-3.49-2,11.78,11.78,0,0,1-7.85-3.2c-2-2-4.37-3.65-6.11-3.78-3.78-.29-6.4,3.78-9,3.78a23,23,0,0,0-4.94.58s.87,3.49,0,5.82S244.74,76.51,254.92,73.89Zm1.16,20.65s-.58-4.65-2.91-4.65-3.49,3.2-3.49,3.2-2,3.78-.58,7.27C250,100.36,256.37,98.33,256.08,94.55Zm10.76-12.13s-1.75-2.79-7.85-3.35c0,0-2.62-.28-2.62-1.4a21.47,21.47,0,0,1-7.27,1.12s-1.16,3.63,7.85,5.3S266.84,82.42,266.84,82.42Zm-55.7,59.76,7.14-8.75-7.2-8.13L204,133.44ZM229,174.82s4.07,7.56,9,6.4,4.65-3.78,4.65-3.78a10.26,10.26,0,0,0,7.27,2.91c4.65,0,6.4-4.65,6.4-4.65s4.07,5.24,9,4.94a7.14,7.14,0,0,0,6.4-4.07s3.2-1.75,4.94-.58,3.2,3.2,7.56,2.33,4.65-9.6,2.91-12.22-7.56-7.85-12.22-6.69a5.45,5.45,0,0,0-4.36,5.53s-2.62-4.36-7.56-4.36-9,4.65-9,4.65-4.36-3.49-9-2.91-4.65,5.24-4.65,5.24-1.45-4.65-8.73-4.65S228.16,172.21,229,174.82Zm64.28-6.69s4.36,7.27,9.6,7.56,4.94-3.49,4.94-3.49,5.24,6.69,9.31,6.11,7-2.91,7.85-6.69,2.62,1.45,2.62,1.45,2,6.69,8.44,6.11,7.85-5.24,7.85-5.24a3,3,0,0,1,2-.58c1.45,0,.58,5.82,3.78,5.82s6.4-.87,7-3.2c.29-.29.58,2.62,3.78,2.33s4.65-2,4.94-4.36,3.2-.58,3.2-.58,1.45,7,6.69,7.27,4.36-2.62,6.4-2.62,2,2.91,5.82,2.62,4.65-4.07,4.94-7.56-1.45-8.14-5.82-7.85-5.24,3.2-5.24,3.2a6.59,6.59,0,0,0-6.4-4.94c-5.24,0-6.4,4.65-6.69,6.11s-2.91-1.16-3.2-3.49-4.36-5.53-7.56-4.36-4.94,1.16-6.11-.58-6.4-4.65-9.31-3.2-4.36,5.24-5.53,3.78-2.62-4.36-7.85-4.07a7.6,7.6,0,0,0-6.69,5.24s-3.49-5.53-9.31-4.94-5.82,4.65-5.82,4.65-4.07-7.27-12.51-4.65C290.69,160,291.28,163.77,293.31,168.13ZM430.78,680.32c42.17-11.91,69.91-29.4,80.26-50.67,5.56-12,6.21-22.1,1.93-29.88-5.52-10-17.51-13-24.16-13.92-8.23-1.1-20.93-5.24-23.42-11-.35-.82-1.42-3.29,1.92-8.11,7.39-6.91,24.56-3.71,37.14-1.36,4.34.81,8.09,1.51,11.24,1.8,11.72,1.06,32.32-.19,35.22-11.82,2.46-11.69-4.85-18.62-15.62-25.78l-1.48-33.68c7.61.56,14.4-1.62,18.84-6.21a14.94,14.94,0,0,0,4-14.53,21.22,21.22,0,0,0-10.44-13c-4.53-2.42-12.46-4.48-24.55-.58l-.31.11c-17.52,7.06-22,18.71-22.76,27.23-1.42,17,11.56,36,24.36,43.86,14.22,8.89,20.44,13.14,18.89,20.52-.58,2.33-10.89,6-25.31,4.64-2.72-.25-6.44-.94-10.38-1.67-14.77-2.75-35-6.52-45.69,4.18L460,561c-5.53,7.7-4.76,13.79-3.14,17.55,5.54,12.83,28.18,16.2,30.74,16.54,4,.53,13.55,2.48,17.23,9.18,2.77,5,2,12.28-2.19,21.41-9.11,18.73-34.83,34.53-74.38,45.7C392.45,681.47,347.62,687,302,687c-86,0-144-33.43-175.09-51.39l-.59-.34c-10.53-6.07-15.61-13.17-14.71-20.51s7.27-12.87,11.34-14a55.63,55.63,0,0,1,7.18-1c10-1,23.72-2.35,29.37-10.75,2.6-3.85,3.11-8.51,1.54-13.86-5.79-19.67-31.59-15.33-54.35-11.51-5.6.94-10.9,1.83-15.79,2.38-9.44,1-14.28-2.71-15.65-6.58-.86-2.41-.35-4.81,1.09-5.74,18.67-11.1,30.25-25.3,34.41-42.21s-.38-33-6.06-42.18c-6.39-10.38-22-15.86-34.9-12.22-9.77,2.76-15.6,10.42-15.6,20.47,0,8.19,2.62,14.2,7.78,17.87,5.84,4.16,13.37,4,18.69,3.22l-2,42.42q-3.37,2.44-7.19,4.72c-5.24,3.37-7.28,10.26-5,16.77C69,569.51,77.1,577,92,575.32c5.15-.57,10.56-1.48,16.3-2.45,23.67-4,40.67-6,43.87,5,1.13,3.85,0,5.49-.33,6-3.21,4.77-15.33,6-22.57,6.69a55.89,55.89,0,0,0-8.81,1.28c-7.81,2.23-16.68,11-18,21.84-.8,6.48.65,19,19.3,29.71l.59.34c29.61,17.09,91.23,52.64,179.74,52.64C348.46,696.35,394.18,690.66,430.78,680.32Zm-346.66-192c-3,1-11.93,3-16.74-.46-2.56-1.83-3.85-5.28-3.85-10.27,0-6,3-9.86,8.83-11.52,8.81-2.5,20.23,1.31,24.44,8.14,4.48,7.28,8.46,20.83,5,35.08a51.06,51.06,0,0,1-13.36,23.44l2.21-46.63Zm457.72-18a12.06,12.06,0,0,1,5.87,7.39,5.69,5.69,0,0,1-1.75,5.5c-3.24,3.35-9.2,4.35-15.92,2.67L524,484.39l1.72,39c-9.76-7.13-18.85-21.57-17.84-33.73.72-8.56,6.37-15.06,16.81-19.31C531.72,468.12,537.65,468.11,541.84,470.34ZM528.64,725.79c2.88-1.79,24.91-16.49,20-44.21-4.83-27.19-22.32-63.56-35.75-81.66l-7.48,5.54c12.8,17.25,29.46,51.88,34.06,77.74,4,22.57-15,34.26-15.82,34.74l-.48.32c-41.43,31.92-120.54,50.22-217.06,50.22-110.79,0-201.53-51.79-202.44-52.31l-.25-.14c-17-8.49-24.37-23.11-20.25-40.12,8.17-33.7,31.1-68,31.33-68.3l-7.72-5.21c-1,1.45-24.09,36-32.66,71.32-5.14,21.22,4.2,40.12,25,50.57,4.09,2.32,95.6,53.49,207,53.49C440.65,777.79,503.23,745.29,528.64,725.79ZM59.39,577.12c-5.57-.62-11.1-3-11-4.33.89-11.59,7.3-78.32,14.24-94.85L54,474.34c-8.41,20-14.88,97-14.94,97.74-.68,8.89,9.94,13.25,19.25,14.29Zm515.54-7.44c0-.24,0-.47-.07-.69-1.17-30.42-6.75-45.78-10.45-56-2-5.59-3.5-9.62-3.5-13.9,0-14.82-4.32-24.26-4.51-24.66L548,478.41c0,.08,3.64,8.11,3.64,20.74,0,5.91,1.79,10.84,4.06,17.07,3.72,10.25,8.83,24.29,9.91,53.49,0,0,.19,2.18.07.49.05.75-.07,4.51-8,5.17l.77,9.28C572,583.5,575.2,574.71,574.93,569.69Zm-5.28,67.63a30.89,30.89,0,0,0,6.94-21.16l-.11-1-.55-.89c-.17-.27-16.77-27.59-16.77-45.27,0-22.37-9.88-24.27-11.86-24.42l-.71,9.28a2,2,0,0,1-.56-.1s3.83,1.94,3.83,15.24c0,18.35,14.26,43.57,17.51,49.08,0,4.35-1.92,22.25-32.53,25.41l1,9.26C551.28,651.1,562.67,645.93,569.65,637.31ZM82.45,661.44l-.61-9.29C60.2,653.54,56.76,638.26,54.92,630L54.68,629c-.76-3.57,3.66-22,6.3-33,2.47-10.26,4.6-19.12,4.86-23.3.43-6.91,6.74-11.6,6.81-11.64l-2.73-3.77,2.71,3.79-5.41-7.58c-.41.29-10,7.24-10.67,18.62-.21,3.37-2.45,12.69-4.62,21.71-4.73,19.7-7.52,32-6.33,37.22l.22,1c2.87,12.82,9.43,29.48,33.07,29.48Q80.62,661.55,82.45,661.44Zm60.08-16.17c-2.63-11.29,6.59-25.42,14-36.78,2.51-3.84,4.87-7.46,6.53-10.62,6.47-12.35.51-21.75-3.54-25l-5.87,7.23c.58.49,5.55,5.07,1.16,13.45-1.45,2.76-3.69,6.2-6.07,9.85-8.38,12.84-18.82,28.82-15.28,44ZM469,596.16c-9-10.44-4.6-22.71-4.41-23.23l-4.35-1.65,4.34,1.67-8.69-3.34c-.28.72-6.67,17.9,6.06,32.64,10.56,12.23,23.53,39.67,23.44,44.28a2.27,2.27,0,0,1,.16-.67l8.72,3.27C497.32,641.06,478.66,607.31,469,596.16ZM51.89,510.78c20.94,1.75,20.36-2.33,20.36-2.33C64.11,505.54,53.06,498,53.06,498S50.73,510.78,51.89,510.78ZM50.73,523c20.94,1.75,20.36-2.33,20.36-2.33-8.14-2.91-19.2-10.47-19.2-10.47S49.57,523,50.73,523Zm-1.16,14.54c20.94,1.75,20.36-2.33,20.36-2.33-8.14-2.91-19.2-10.47-19.2-10.47S48.4,537.54,49.57,537.54Zm-1.16,18c20.94,1.75,20.36-2.33,20.36-2.33-8.14-2.91-19.2-10.47-19.2-10.47S47.24,555.57,48.4,555.57ZM46,571.28c18,1.75,17.5-2.33,17.5-2.33C56.53,566,47,558.48,47,558.48S45,571.28,46,571.28Zm92,12.8s11.63-2.91-2.33-5.82A25.83,25.83,0,0,0,113,584.07C130.43,579.42,138,584.07,138,584.07ZM60.62,587c25,7.56,28.5,0,28.5-.58-25.6-5.24-26.76-19.2-26.76-19.2S58.87,585.82,60.62,587Zm-3.44,15.3c27.52,5.85,31.36,0,31.36-.45C60.38,597.78,59.1,587,59.1,587S55.26,601.38,57.18,602.28ZM53.73,617c27.93,3.4,31.24-2.77,31.2-3.22-28.41-1.55-30.64-12.19-30.64-12.19S51.73,616.27,53.73,617Zm-2.44,14.63c21.85,3.76,24.33-2.16,24.29-2.59-22.2-2-24.11-12.32-24.11-12.32S49.72,630.89,51.29,631.63ZM103.1,567.1a1.91,1.91,0,0,1,.36.25s-4.3-4.75,2.95-27c8.9-27.31,4-53,3.82-54.11l-6.85,1.34c0,.25,4.74,25-3.61,50.6-8.91,27.31-2.39,33.64-.19,34.93Zm406.51-36.83a120.59,120.59,0,0,1-2.83-41.69l-6.91-1a125.5,125.5,0,0,0,3,44.41c5.26,20.52,1.51,28.23,1.51,28.23l6.06,3.46C511,562.74,515.6,553.65,509.61,530.27Zm-3.38,6.1C517.86,542.77,526,541,526,541c-8.14-2.33-22.11-15.71-22.11-15.71Zm2.91,12.22c9.89,5.82,18.62,2.91,18,2.33-7-1.16-18.62-9.31-18.62-9.31S509.14,548,509.14,548.59ZM91.45,641.08c12.22,9.31,19.2,8.14,19.78,7.56C103.09,643.41,97.85,630,97.85,630S89.12,641.67,91.45,641.08Zm-5.08,11.84c12.94,8.28,19.8,6.55,20.33,5.92-8.55-4.55-14.86-17.46-14.86-17.46S84.1,653.7,86.37,652.93Zm-5,14.15c13.57,7.19,20.27,4.91,20.75,4.24-8.89-3.84-16.24-16.18-16.24-16.18S79.16,668,81.36,667.08Zm-4.61,13.08c13.44,7.45,20,5.15,20.5,4.47-8.8-4-16.13-16.68-16.13-16.68S74.58,681.12,76.75,680.15Zm2,18.92c14.53,6.09,20.53,2.7,20.85,1.91-9.34-3-18.92-15.6-18.92-15.6S76.8,700.4,78.73,699.07Zm68-84.74s5.24-11.05,3.49-10.47c-12.22.58-19.78,4.07-19.78,4.07C134.5,607.34,146.72,614.33,146.72,614.33Zm-6.4,9.89s1.75-7.56,2.33-8.14c-15.13-.58-18,2.91-18,2.91C129.85,618.4,140.32,624.21,140.32,624.21Zm-1.37,11s1.46-8.51,2-9.16c-12.69-.65-15.13,3.27-15.13,3.27C130.16,628.65,138.95,635.2,138.95,635.2Zm417.5-128.11s1.16-10.47-.19-8-16.09,4.46-16.09,4.46C550.24,509.81,556.45,507.09,556.45,507.09Zm3,12.8s1.35-10.47-.23-8-18.7,4.46-18.7,4.46C552.27,522.6,559.48,519.89,559.48,519.89Zm6.1,25.6s1.62-10.47-.27-8S542.88,542,542.88,542C556.93,548.2,565.58,545.49,565.58,545.49Zm.78,11.63s1.62-10.47-.27-8-22.43,4.46-22.43,4.46C557.7,559.84,566.35,557.12,566.35,557.12Zm-2.92-25.6s1.16-10.47-.19-8S547.14,528,547.14,528C557.23,534.24,563.43,531.52,563.43,531.52Zm-75.24,47.7c3.1,1.55,8.92,1.55,9.31,1.55,2.71,1.55,10.08,2.33,10.08,2.33s-1.55-5.43-8.92-7.76-21.72-3.1-21.72-3.1C478.11,575.74,487.81,579.23,488.19,579.23Zm65.93-1.94s-1.55-10.47-3.1-9.31c-3.1,3.1-21.33,6.59-21.33,6.59C538.22,578.45,554.12,577.29,554.12,577.29Zm2.71,10.1s-1.55-9.2-3.1-8.18c-3.1,2.73-21.33,5.79-21.33,5.79C540.94,588.41,556.84,587.39,556.84,587.39Zm3.88,10.86s-1.55-9.2-3.1-8.18c-3.1,2.73-21.33,5.79-21.33,5.79C544.82,599.27,560.72,598.25,560.72,598.25Zm6.21,10.86s-1.55-9.2-3.1-8.18c-3.1,2.73-21.33,5.79-21.33,5.79C551,610.13,566.92,609.11,566.92,609.11Zm3.4,9s-2.32-9-3.78-7.89c-2.86,3-20.77,7.56-20.77,7.56C554.56,620.51,570.32,618.15,570.32,618.15Zm-1.07,14.6s1.16-10.47-.19-8S553,629.26,553,629.26C563,635.46,569.25,632.75,569.25,632.75Zm-94.63-24c1.16-3.49,17.06-3.49,16.68-3.88-10.08-6.59-25.79-5.62-25.79-5.62S473.46,612.19,474.62,608.7Zm5.43,9.7c2.71-1.16,17.06-.78,16.68-1.16-10.29-10.29-23.27-5-23.27-5S477.33,619.56,480,618.4Zm2.62,4.79,3.2,7.62c1.16-3.88,12.41-.78,12-2-1.14-3.65-15.22-5.52-15.22-5.52S484.7,634.69,485.87,630.81Zm40.72,5.82s-3.49-15.51-5.43-7.37S508.36,649,508.36,649C516.12,653.69,526.59,636.62,526.59,636.62Zm5.56,15.74s.88-15.88-3.21-8.57-17.71,15.54-17.71,15.54C517.42,665.92,532.15,652.36,532.15,652.36Zm5.93,12.39s1.2-15.08-2.5-8S520,672,520,672C525.09,678,538.08,664.75,538.08,664.75Zm4.27,13.19s1.2-15.08-2.5-8-15.59,15.23-15.59,15.23C529.36,691.21,542.35,677.94,542.35,677.94Zm1.72,12s3.44-15.61-.57-8.23S529,697.86,529,697.86C531.91,704,544.06,689.91,544.06,689.91Zm-62.85-489.2H137.3v0l343.91,1.5ZM137.3,434a109.67,109.67,0,0,0,1.45,16.83c-.6-12-1.07-29.3-1.45-49.25Zm353.22-133.7V386C491.87,356.81,491.56,327.11,490.52,300.35ZM230.05,259.1l-36.51,50-36.5-50,36.18-46.44Zm-36.51,38.56,28.07-38.41-28.33-35.72-27.81,35.7Zm-.12-54.19-13,16.63L193.54,278l13.08-17.9Zm257.3,15.63-36.51,50-36.5-50,36.18-46.44Zm-36.51,38.56,28.07-38.41L414,223.53l-27.81,35.7Zm-.12-54.19-13,16.63L414.22,278l13.08-17.9ZM287.2,268.92c0-8.1,7.44-14.69,16.58-14.69s16.58,6.59,16.58,14.69-7.44,14.69-16.58,14.69S287.2,277,287.2,268.92Zm4.65,0c0,5.53,5.35,10,11.93,10s11.93-4.5,11.93-10-5.35-10-11.93-10S291.86,263.39,291.86,268.92Zm11.93-4.79c-3,0-5.52,2.14-5.52,4.79s2.47,4.79,5.52,4.79,5.52-2.14,5.52-4.79S306.83,264.13,303.78,264.13ZM261.86,247.8a25,25,0,0,1,34.37-22,26.25,26.25,0,0,0-.51,3l-.13,1.23,4.71.21.06-1.15s0-.43.13-1.1a25.13,25.13,0,0,1,6,5.33,25.12,25.12,0,0,1,5.69-5.13c0,.37.11.74.13,1.12l.05,1.16,4.65-.22-.06-1.16a19.42,19.42,0,0,0-.43-3.19,25,25,0,0,1,34.59,22,22,22,0,0,0-3.11-.07l-1.25.07.6,4.68,1.14-.12a13.48,13.48,0,0,1,2.42,0,25.21,25.21,0,0,1-1.8,6.57,25.12,25.12,0,0,1,3.51,4.38,12.12,12.12,0,0,1-2.31.8l-1.35.3,1.85,4.46,1-.21a15.45,15.45,0,0,0,3-1,25.1,25.1,0,0,1-18.46,33.82,15.5,15.5,0,0,0-1.25-3l-.57-1-3.87,2.21.57,1a11.3,11.3,0,0,1,.59,1.26l-.39,0a25.1,25.1,0,0,1-4.75-.45,25.09,25.09,0,0,1-3.72,5.85,10,10,0,0,1-.66-.79l-.66-1-3.74,2.59.78,1c.37.46.75.89,1.13,1.3a25,25,0,0,1-31.49.36,21.12,21.12,0,0,0,1.5-1.66l.78-1-3.72-2.57-.67.93a14.12,14.12,0,0,1-1.12,1.26,25.08,25.08,0,0,1-4-6,24.93,24.93,0,0,1-2.86.17c-.52,0-1,0-1.55-.08a11.26,11.26,0,0,1,.56-1.2l.56-1-3.87-2.21-.57,1a15.49,15.49,0,0,0-1.17,2.71,25,25,0,0,1-16.93-34.55,14.73,14.73,0,0,0,3.3,1.19l.77.17,3-4.41-1.68-.38a12.84,12.84,0,0,1-2.88-1,25.13,25.13,0,0,1,5.24-5.41,24.84,24.84,0,0,1-1-4.48,12.47,12.47,0,0,1,1.38,0l1.16.15.6-4.71-1.25-.06C263.21,247.77,262.52,247.77,261.86,247.8Zm5.75,1.28a19.17,19.17,0,0,0,1.63,7.75l1,2.32-2.15,1.33a19.31,19.31,0,0,0,10.11,35.77,19.5,19.5,0,0,0,4.06-.43l2.49-.53.86,2.4a19.3,19.3,0,0,0,36.51-.41l.9-2.7,2.72.83A19.32,19.32,0,0,0,343.67,262l-1.86-1.53,1.15-2.11A19.33,19.33,0,1,0,309,239.86l-2.55,4.7-2.56-4.7a19.33,19.33,0,0,0-36.31,9.22Zm46.32-24a17.55,17.55,0,0,1,.42,1.8h0A17.68,17.68,0,0,0,313.93,225.05Zm.6,2.93c0-.39-.11-.76-.18-1.13h0c.07.37.14.75.18,1.13Zm-8.12-15.49,1.09.93c2.35,2.07,6.65,6.59,7.94,12.87.35-.16.72-.3,1.08-.45-1.37-6.35-5.6-11-8.26-13.31l-1.72-1.46-.71.41a22.66,22.66,0,0,0-9.59,14.27c.37.15.73.29,1.09.45A21.71,21.71,0,0,1,306.4,212.49Zm-.14,2.95a19.46,19.46,0,0,0-6.84,11.86c.36.21.72.41,1.07.63A18.81,18.81,0,0,1,306.21,217c2.27,2.22,5.32,6.12,5.95,11.14.35-.23.71-.46,1.08-.68C312.32,221.69,308.46,217.43,306.26,215.44ZM295.59,230l4.71.21.06-1.15s0-.43.13-1.1c-.35-.22-.71-.42-1.07-.63a15.42,15.42,0,0,0-.22,1.68l-2.32-.11a24.93,24.93,0,0,1,.44-2.66c-.36-.16-.72-.31-1.09-.45a26.25,26.25,0,0,0-.51,3Zm20.19-.89-2.32.11a15.54,15.54,0,0,0-.22-1.74c-.37.22-.72.44-1.08.68,0,.37.11.74.13,1.12l.05,1.16,4.65-.22-.06-1.16a19.42,19.42,0,0,0-.43-3.19c-.36.15-.73.28-1.08.45A18.23,18.23,0,0,1,315.78,229.09Zm-9.52-13.65c2.2,2,6.05,6.25,7,12,.36-.21.73-.41,1.1-.61a17.55,17.55,0,0,0-.42-1.8,17.68,17.68,0,0,1,.42,1.8c.36-.19.72-.39,1.09-.56-1.28-6.28-5.59-10.8-7.94-12.87l-1.09-.93a21.71,21.71,0,0,0-9.08,13.72c.72.33,1.42.7,2.1,1.09A19.46,19.46,0,0,1,306.26,215.44ZM314.53,228h0c0-.39-.11-.76-.18-1.13-.37.2-.74.39-1.1.61a15.54,15.54,0,0,1,.22,1.74l2.32-.11a18.23,18.23,0,0,0-.35-2.8c-.37.17-.73.37-1.09.56C314.41,227.22,314.48,227.6,314.53,228Zm-17.65.89,2.32.11a15.42,15.42,0,0,1,.22-1.68c-.69-.39-1.38-.76-2.1-1.09A24.93,24.93,0,0,0,296.88,228.87Zm63.28,31.51a18.8,18.8,0,0,1-6.41,5.06l.09.19A16.81,16.81,0,0,0,360.16,260.39Zm-8,5.88a13.38,13.38,0,0,0,1.67-.64l-.09-.19a14.41,14.41,0,0,1-1.63.7Zm12.14-10.4-.65,1.22c-1.42,2.56-4.29,7.27-9.33,9.57.16.36.31.72.46,1.09,5.72-2.61,8.78-8.1,9.9-10.11l1-1.88-.45-.59a21,21,0,0,0-14.14-7.27c0,.39.06.78.06,1.18A20,20,0,0,1,364.31,255.87Zm-2.66.31A17.13,17.13,0,0,0,351,251.32c0,.39-.09.77-.15,1.16a16.19,16.19,0,0,1,9.28,3.91,18.22,18.22,0,0,1-7.58,7.05q.31.49.6,1C357.55,262.43,360.35,258.46,361.65,256.18Zm-10.16,11.47-.95-2.28a13.19,13.19,0,0,0,2.66-.94q-.29-.51-.6-1a12.12,12.12,0,0,1-2.31.8l-1.35.3,1.85,4.46,1-.21a15.45,15.45,0,0,0,3-1c-.14-.37-.3-.73-.46-1.09A14.35,14.35,0,0,1,351.49,267.65ZM348,247.82l-1.25.07.6,4.68,1.14-.12a13.48,13.48,0,0,1,2.42,0c.05-.39.11-.77.15-1.16a14.57,14.57,0,0,0-2.7,0L348,249a20.62,20.62,0,0,1,3.11.09c0-.4,0-.78-.06-1.18A22,22,0,0,0,348,247.82Zm5.22,16.62c.19.33.38.67.55,1a18.8,18.8,0,0,0,6.41-5.06,16.81,16.81,0,0,1-6.32,5.24c.17.34.34.68.49,1,5-2.31,7.91-7,9.33-9.57l.65-1.22a20,20,0,0,0-13.16-6.8h0c0,.75,0,1.5-.12,2.24a17.13,17.13,0,0,1,10.61,4.86C360.35,258.46,357.55,262.43,353.2,264.44Zm-2-15.37A20.62,20.62,0,0,0,348,249l.3,2.31a14.57,14.57,0,0,1,2.7,0c.07-.74.12-1.49.12-2.24Zm1,17.2-.05-.13a14.41,14.41,0,0,0,1.63-.7c-.17-.34-.36-.67-.55-1a13.19,13.19,0,0,1-2.66.94l.95,2.28a14.35,14.35,0,0,0,2.85-1c-.16-.35-.32-.69-.49-1A13.38,13.38,0,0,1,352.17,266.27Zm-101.67-7.54a13,13,0,0,0,5.77,6l.25-.44A16.39,16.39,0,0,1,250.51,258.73Zm7.8,6.74.24-.34a14.59,14.59,0,0,1-2-.88l-.25.44A12.21,12.21,0,0,0,258.3,265.47Zm-1.2-2.24c.21-.32.46-.62.69-.93a14.67,14.67,0,0,1-6-5.91,16.23,16.23,0,0,1,10.24-4c-.05-.39-.1-.77-.14-1.16a17.18,17.18,0,0,0-11.57,4.94A16.71,16.71,0,0,0,257.11,263.23Zm-9.28-4.59c1.32,2.52,3.23,6,7.42,8.1.16-.36.29-.72.46-1.07-4.37-2.17-6-6.1-7.39-8.59l-.64-1.22A19.87,19.87,0,0,1,261.8,249c0-.4,0-.78.06-1.17a20.92,20.92,0,0,0-15.11,7.37l-.45.59,1,1.89C247.47,258,247.64,258.29,247.83,258.65Zm11.49,9.46,3-4.41-1.68-.38a12.84,12.84,0,0,1-2.88-1c-.23.31-.48.61-.69.93a13.84,13.84,0,0,0,3.31,1.22l-1.62,2.35a13.51,13.51,0,0,1-3.1-1.13c-.17.35-.31.72-.46,1.07a14.73,14.73,0,0,0,3.3,1.19ZM263.86,249l-.3,2.31a13,13,0,0,0-1.67,0c0,.39.09.78.14,1.16a12.47,12.47,0,0,1,1.38,0l1.16.15.6-4.71-1.25-.06c-.71,0-1.4,0-2.06,0,0,.39-.06.78-.06,1.17C262.46,248.94,263.15,248.93,263.86,249Zm-13.35,9.76a16.39,16.39,0,0,0,6,5.52c.2-.34.37-.69.58-1a16.71,16.71,0,0,1-6.79-7.05,17.18,17.18,0,0,1,11.57-4.94c-.06-.72-.1-1.44-.1-2.17,0,0,0-.07,0-.11a19.87,19.87,0,0,0-14.13,6.9l.64,1.22c1.37,2.49,3,6.42,7.39,8.59.17-.34.38-.66.57-1A13,13,0,0,1,250.51,258.73Zm9.92,5.72a13.84,13.84,0,0,1-3.31-1.22c-.21.33-.39.68-.58,1a14.59,14.59,0,0,0,2,.88l-.24.34a12.21,12.21,0,0,1-2-.79c-.19.33-.4.65-.57,1a13.51,13.51,0,0,0,3.1,1.13Zm1.47-13.2a13,13,0,0,1,1.67,0l.3-2.31c-.71,0-1.4,0-2.06,0,0,0,0,.07,0,.11C261.79,249.81,261.83,250.53,261.89,251.25Zm13.66,62.32a16.11,16.11,0,0,0,10.31-4.82c-.27-.28-.55-.56-.81-.85a15.09,15.09,0,0,1-8.66,4.42,16.27,16.27,0,0,1,.26-10.34c-.41,0-.82,0-1.22-.08C273.73,306.37,274.77,311.13,275.55,313.57Zm-1.44,2-.42-1.2c-.87-2.59-2.11-7.8-.39-12.85-.38-.08-.75-.18-1.13-.27-1.74,5.21-.57,10.53.42,13.51l.68,1.91.76.05.57,0a19.75,19.75,0,0,0,13.68-5.87c-.31-.24-.61-.48-.91-.74A18.56,18.56,0,0,1,274.11,315.61Zm.24-16.46,1.85,1.06a12.42,12.42,0,0,0-.77,1.69c.4,0,.82.06,1.22.08a11.26,11.26,0,0,1,.56-1.2l.56-1-3.87-2.21-.57,1a15.49,15.49,0,0,0-1.17,2.71c.38.09.75.2,1.13.27A14.3,14.3,0,0,1,274.36,299.15Zm15.42,10.1.78-1-3.72-2.57-.67.93a14.12,14.12,0,0,1-1.12,1.26c.26.29.54.57.81.85a12.85,12.85,0,0,0,1.26-1.44l1.75,1.21a19.71,19.71,0,0,1-1.5,1.65c.3.26.6.5.91.74A21.12,21.12,0,0,0,289.78,309.26Zm-14.35-7.36q-1.08-.12-2.13-.33c-1.72,5-.47,10.26.39,12.85l.42,1.2a18.56,18.56,0,0,0,13.26-5.44c-.52-.45-1-.93-1.51-1.42a16.11,16.11,0,0,1-10.31,4.82C274.77,311.13,273.73,306.37,275.43,301.89Zm.77-1.69-1.85-1.06a14.3,14.3,0,0,0-1.06,2.41q1.05.21,2.13.33A12.42,12.42,0,0,1,276.2,300.21Zm11.17,10a19.71,19.71,0,0,0,1.5-1.65l-1.75-1.21a12.85,12.85,0,0,1-1.26,1.44C286.35,309.25,286.85,309.72,287.37,310.18Zm45.5,3.39c.78-2.42,1.82-7.14.16-11.59-.41,0-.82.06-1.23.06a16.31,16.31,0,0,1,.23,10.28,15.32,15.32,0,0,1-9.1-4.87c-.25.3-.52.58-.78.87A16.22,16.22,0,0,0,332.87,313.57Zm1.86.85-.42,1.2a18.54,18.54,0,0,1-13.65-5.82q-.43.39-.88.76a19.73,19.73,0,0,0,14,6.23l.57,0,.76-.05.69-1.94c1-2.91,2.1-8.09.49-13.22-.38.08-.77.12-1.16.18C336.8,306.74,335.59,311.85,334.73,314.41Zm-.23-16.85-3.87,2.21.57,1a11.3,11.3,0,0,1,.59,1.26c.42,0,.82,0,1.23-.06a12.49,12.49,0,0,0-.81-1.76l1.85-1.06a14.27,14.27,0,0,1,1.11,2.59c.39-.06.78-.1,1.16-.18a15.5,15.5,0,0,0-1.25-3Zm-15,11,1.75-1.21a11.51,11.51,0,0,0,.85,1c.27-.28.53-.57.78-.87a10,10,0,0,1-.66-.79l-.66-1-3.74,2.59.78,1c.37.46.75.89,1.13,1.3q.45-.37.88-.76C320.28,309.39,319.91,309,319.55,308.53Zm13.32,5a16.22,16.22,0,0,1-10.73-5.25q-.71.77-1.48,1.47a18.54,18.54,0,0,0,13.65,5.82l.42-1.2c.86-2.56,2.07-7.68.44-12.67q-1.06.16-2.15.23C334.69,306.43,333.65,311.15,332.87,313.57Zm-10.73-5.25a11.51,11.51,0,0,1-.85-1l-1.75,1.21c.36.45.73.87,1.11,1.26Q321.43,309.09,322.14,308.32Zm11.92-9.17-1.85,1.06A12.49,12.49,0,0,1,333,302q1.09-.07,2.15-.23A14.27,14.27,0,0,0,334.07,299.15ZM490.52,386c-2.21,47.58-8.86,93.9-24,124.26-43.79,87.58-163.08,117.78-163.08,116.27C172,590.33,144.84,483.12,140.31,468c-.59-2-1.11-8.09-1.56-17.14A109.67,109.67,0,0,1,137.3,434V401.62c-1.52-79.38-1.52-200.88-1.52-200.88h1.52v0H481.21v1.53h1.88s5.27,42.76,7.43,98.09V191.4H128V433.92c0,1.31-.66,32.55,18.33,71.65,17.43,35.9,55.47,85.36,137.53,117.08,7.47,3.2,16.63,7.74,18.4,9.51a6.09,6.09,0,0,0,8.87,0c1.83-1.78,11.28-6.34,18.87-9.49,48-18.37,111.88-53.79,143.42-118.23,18.48-37.77,17.27-67.79,17.11-70.58ZM135.78,200.74s0,121.5,1.52,200.88V200.75Zm345.43,1.5V434.36c0,.29,1.75,29.42-16.17,66-30.2,61.72-91.92,95.85-138.51,113.68-3.58,1.49-14.4,6.11-19.81,9.81-5.29-3.7-15.77-8.31-19.38-9.85C208.22,583.43,171.66,536.19,154.91,502a178,178,0,0,1-16.16-51.07c.45,9.05,1,15.16,1.56,17.14,4.53,15.1,31.71,122.31,163.08,158.55,0,1.51,119.29-28.69,163.08-116.27,15.18-30.36,21.83-76.69,24-124.26V300.35c-2.16-55.33-7.43-98.09-7.43-98.09ZM149.71,425.32V335.67H468.79v89.65s3,28.73-13.58,65c-.56-4.44-8-4.33-10.2-4.82-2.65-.58-8-2.62-5.31-7.85s-1.47-5.53-1.47-5.53c-6.19,3.78-12.67,2.33-13,2-7.66-4.94-13.26-3.2-13.26-3.49,1.77-13.67-2.36-20.36-2.06-20.94a11.15,11.15,0,0,1-7.37-7.27l4.13-.29s4.42-3.2,9.14-3.2,19.45,7.27,19.16,6.69c-4.72-22.69,9.43-30.83,9.73-31.12A50.58,50.58,0,0,1,430.27,370c-22.4-.87-26.53,13.09-26.23,13.38-11.79-16.58-23.87-12.22-23.58-12.22-2.95,4.65-2.06,6.11-16.5,13.67s-61.6,9.31-62.78-6.11S326.53,372,326.53,372c5.6-11.34,42.74-4.94,42.74-5.24-4.72-15.13-28.88-12.8-28.88-13.09-1.77-7-12.67-10.18-12.67-10.18-5.31,2-4.42,9.89-4.42,9.89-2.65-.87-6.48.87-6.78.58,1.47,3.78-5.89,3.49-5.89,3.49s-21.22,2.33-21.81,17.74,4.72,22.4,28.59,25.6,43.62-7.85,71-6.11c21,1.34,30.06,14.54,26.53,22.4s-11.2,4.65-28.88-3.2-30.06-3.49-39.2-1.16-24.76,5.82-33.6,5.24-11.49,2.62-16.5,5.53-13.26,7.85-16.8,8.14-3.83,2.62-1.77,11.34,1.47,13.38-.88,14.83-5.89.58-10.9-.58-2.95-4.65-2.95-4.65a36.1,36.1,0,0,0,9.43-.87c5-1.16-1.77-14-2.65-16s-2.36-8.14,6.19-9,18-7.85,18-8.14c-.59-2.33-.88-3.49-10.9-8.14s-8.84-12.8-7.66-15.71,2.95-2.91,2.95-11.93,2.36-11.05,2.36-20.07-9.43-10.47-9.14-10.47c.29,1.45-1.18,3.49-3.54,4.36s-3.83-3.2-3.83-3.2-1.77-4.94-8.84-5.53-6.78,1.75-9.43,2.91-4.72-.58-6.48-3.2-4.42-1.45-8.25.29-5.31,7.27-5.89,9a79.59,79.59,0,0,0-2.65,11.63c-.59,4.36,2.65,4.65,2.36,4.65.88,6.11-3.24,11.34-4.72,15.42s-3.54,13.09,5.89,15.71a20.72,20.72,0,0,0,16.5-2.62c.59,5.53,7.07,6.69,9.43,6.4s3.54,5.24,3.83,4.94c-5,.29-3.24,4.36-5.31,7s-1.77,7.85-1.77,7.56c5.89,1.45,6.19-3.2,11.2-6.69s6.19,3.78,6.19,3.78a19.81,19.81,0,0,0-6.19,6.11c-2.95,4.36-7.37,7-18.86,3.78s-17.09-.87-17.09-1.16c-5-3.78-4.72-13.67-3.24-16a7,7,0,0,0,.88-4.94c-7.37.29-7.66,7.56-11.79,12.8A20.48,20.48,0,0,0,206,435.73c-6.19,6.4-7.37,15.13-7.07,14.83,5,2.62,10.9,0,12.67-.87s3.83,0,2.65,4.94,3.83,9.6,4.13,9.31c-.29-4.07,5.6-4.36,8.84-6.69s6.48-2.62,7.37,2.91,7.37,4.94,7.37,4.94,6.78-4.65,13-4.07,2.95,6.4,2.95,6.4a27.85,27.85,0,0,0-9.43,1.45c-5.6,1.75-6.19,6.4-6.48,6.4a8.69,8.69,0,0,1-6.78-4.36c-1.77-2.91-8-6.11-8-6.11s-5.89,3.2-10,12.51-1.47,16-2.36,22.4-10.32,4.94-13,4.94-11.49,2-13,9.6,6.19,7,6.19,7,6.78-1.16,5.6,3.78,3.83,9,3.83,9,1.18-4.07,3.24-3.78c4.42.29,8-2.91,7.66-2.91,6.19,11.05,19.75,9.89,19.75,9.6-.59-5.53,2.65-8.44,8.84-15.42s8.25-18,16.5-25.6,8-17.74,8.25-20.65,5-10.18,11.2-5.53,17.39,2,24.46,2,12.38-4.36,20-7.27,16.21-8.73,18.57-9.6.59-6.4.59-8.44,4.42-2.91,10,2.91,10.9,17.74,18.27,28.5,15,10.18,18.57,9.89,8.55,2.33,8.55,2.33,11.2-4.07,17.09,3.49-2.36,16.58-2.36,16.29c-6.19-.29-7.07,2.33-7.07,2.33s-18.86-.58-25.35-.29-3.83,6.4-3.83,6.4-3.24.87-3.24,4.07c-.59,9,6.78,10.76,6.78,11.05.29-2.91,5.6-4.65,5.6-4.65l7.66,4.07,7.07-3.49c.59,3.49,8.25,5.53,8.25,5.53s2.36-2.33,12.67-3.49a9.47,9.47,0,0,1,5.49.8c-21.18,24.13-53.15,48.15-101.32,67,0,0-15.21,6.6-18.47,9.91a1.54,1.54,0,0,1-1.07.55,1.48,1.48,0,0,1-1-.55c-3.17-3.3-17.94-9.91-17.94-9.91C146.72,550.92,149.71,425.32,149.71,425.32Zm134.29,99c-4.27,2.13.58,10.47,7.37,9.89.19,0,2.13-6,5-6.79a3.76,3.76,0,0,1,4.27,1.55s-3.1,2.13-1.94,4.27a6.93,6.93,0,0,0,5.62,3.68c2.13,0,7.56,1.36,18.81-3.49s23.85-3.1,23.85-3.1,5.62-1.75,5.82-7,4.51-9.53,10.08-13.38,11.25-4.65,11.44-7a65.59,65.59,0,0,0-.39-8s-.19-2.33-4.07-4.46c-7-3.68-14.54-16.29-14.74-20.17s-3.88,6.4-6,6.21-3.1-5.62-2.71-8c.19-.19-4.46.58-6.79,6.21s-5.24-1.36-3.49-5.24c.19,0-4.07.78-5,4.27s-4.85,3.1-3.88-.19,0-4.65-1.16-5-2.52-.19-6.59,2.52-7.56-.78-8.53,3.88c0,0,.78,3.49,0,5.24s-3.3,12.6,4.85,13.19,12.41,3.68,22.49,1.16c-.19.19,1.75,12-7.76,13.57s-14.74,5.43-27.15,1.55-10.47,1.75-12,4.46S288.27,522.22,284,524.35Zm-20.94-4.46c.19.39,2.71.78,5.82-.78s8.34-3.3,10.86-3.3,3.3-.58,4.46-3.68a8.57,8.57,0,0,0-.39-6.21,7.84,7.84,0,0,1-5.24,1.36c-2.91-.39-8.14,1.75-10.47,3.3C268.1,510.58,262.09,514.65,263.06,519.89Zm-25.69-93.05a3.6,3.6,0,0,0,3.73-2.16c1-2.43,1.88-7,4.55-8.31,0,0-2.25-4.71-5.27-1.9S236.63,422.67,237.37,426.84Zm-9-1.38a3.6,3.6,0,0,0,3.49-2.52c.78-2.52,1.16-7.17,3.68-8.73,0,0-2.71-4.46-5.43-1.36S227.19,421.38,228.35,425.46ZM168.24,361c11.93,12.22,37.81,8.73,37.81,8.44.58-6.11-1.75-16.58-16.87-19.2S168.24,361,168.24,361Zm2.33,65.45c5.53,17.74,24.14,20.07,23.85,19.78-2.91-4.07,13.67-32,13.67-32s-9.6-5.82-11.63-16.58,8.44-19.78,8.73-20.36c-9.6-3.2-21.82-.58-21.82-.58a33.24,33.24,0,0,0-9.6-5.24A30.62,30.62,0,0,0,163,369.71c1.45,18.91-2.91,27.34-2.91,27.34s6.11,2.62,5.53,2.62c-5.82,13.09-.87,27.63-.87,27.63S170.57,426.13,170.57,426.42Zm19.49,79.08c1.36-1.94,2.71-4.65,4.27-4.85s.39-4.27-5.82-5-17.06-1.36-14,4.65c0,0,2.71,3.88,5.43,4.07a4.67,4.67,0,0,1,3.68,1.75S188.7,507.44,190.05,505.51Zm108.3-38.94c4.27,1.94,7-1.16,6.79-1.36-2.71-.58-12.6-9.31-12.6-9.31C287.11,460.17,294.09,464.63,298.35,466.56ZM310,462.17c3.83,1.74,6.26-1,6.09-1.22-2.44-.52-11.31-8.35-11.31-8.35C299.87,456.43,306.13,460.43,310,462.17Zm11.18-4c3.47,1.58,5.68-.95,5.52-1.1-2.21-.47-10.26-7.58-10.26-7.58C312,453,317.67,456.6,321.14,458.18ZM263.06,379.3s-4.85-1.94-5.24,1,.39,5.24,3.88,5.43,5-1,5-1S267.72,382,263.06,379.3Zm-24.24-4.85s-6.21-1.55-3.88,2.71,4.27,4.46,8.14,3.3,2.13-6.59,2.13-6.59C241.15,375.43,238.82,374.46,238.82,374.46Zm181,106.65c-12.51-3.78-26.18-5.24-26.76-10.18-.61-5.17-4.07-18.32-4.65-23.85l-7.27-.87,4.07,21.23s.87,11.05,12.22,14.25S419,487.22,419,487.22s4.36.58,3.78,7,.58,18.62.58,18.62a7.18,7.18,0,0,0,6.4-5.82c1.16-5.53.29-15.13.29-15.13S432.35,484.89,419.84,481.11Zm-123.62-180a8,8,0,0,0,7,4.36c4.94,0,6.69-1.16,7.85-3.78S296.22,301.06,296.22,301.06Zm45.26-13.78c3.54-3.45,4-5.5,3-8.19s-11,9.93-11,9.93A8,8,0,0,0,341.48,287.28Zm-76-9.59c-1.33,2.54-1.17,4.63,1.9,8.51a8,8,0,0,0,7.75,2.78S266.82,275.16,265.49,277.69Zm21-42.86c-2.5-1.4-4.6-1.28-8.55,1.69a8,8,0,0,0-3,7.68S289,236.23,286.51,234.84Zm52,9.37a8,8,0,0,0-3-7.68c-4-3-6-3.08-8.55-1.69S338.47,244.21,338.47,244.21Zm-69,389.48h-3.43a10,10,0,0,1-2.63,4.25,11.81,11.81,0,0,1-3.67,2.56v4.7a14.64,14.64,0,0,0,5.49-3.92v19.51h4.24Zm14.83,25.9a5.56,5.56,0,0,0,4.14,1.65,6.88,6.88,0,0,0,5.87-3.25q2.28-3.26,2.27-10.69t-2.17-10.46a6.5,6.5,0,0,0-5.53-3.15,6.32,6.32,0,0,0-5,2.44,10.16,10.16,0,0,0-2,6.72,9.92,9.92,0,0,0,1.94,6.4,5.65,5.65,0,0,0,4.47,2.41,4.31,4.31,0,0,0,2.21-.58,5.58,5.58,0,0,0,1.79-1.69c-.18,3.06-.56,5.08-1.16,6.08a2.67,2.67,0,0,1-2.32,1.5q-2.1,0-2.4-3l-4.11.55A8.7,8.7,0,0,0,284.33,659.59ZM291,646.71a2.43,2.43,0,0,1-4.16-.06,9.15,9.15,0,0,1-.07-7.56,2.32,2.32,0,0,1,2-1.12,2.68,2.68,0,0,1,2.17,1.36,6.68,6.68,0,0,1,1,3.89A5.85,5.85,0,0,1,291,646.71Zm36-13h-3.43a10,10,0,0,1-2.63,4.25,11.81,11.81,0,0,1-3.67,2.56v4.7a14.64,14.64,0,0,0,5.49-3.92v19.51H327Zm22.3,5.27a41,41,0,0,0-4.77,10.35,42.27,42.27,0,0,0-1.92,11.48h4.09a38.84,38.84,0,0,1,1-8.24,42.11,42.11,0,0,1,2.84-8.51,28.32,28.32,0,0,1,3.62-6.13v-3.76H339.59v4.81ZM246.47,698.31c-1.81-.48-11.14-2.66-16.84,1.42a9.82,9.82,0,0,0-4.11,7.63c-.62,9.73,3,19.22,3.17,19.75,1,2.32,2.31,7.9.32,10.34-1.61,2-6.07,2.42-12.27,1.26a4.5,4.5,0,1,0-1.68,8.83,41.75,41.75,0,0,0,7.67.79c6,0,10.49-1.75,13.32-5.23,5.89-7.25,1.51-18.22,1-19.3,0-.08-3-8.12-2.54-15.86,0-.67.22-.8.36-.9,1.46-1,6-.86,9.24,0a4.5,4.5,0,1,0,2.31-8.69ZM167.36,686l-12.74,25.31c-.85.74-5.32,2.17-11.21-1-2.44-1.32-2.27-4.22-1.66-6.49L147,693.35,155,679a4.48,4.48,0,0,0-1.78-6.11,5.51,5.51,0,0,0-7,1.92L139,689.2l-4,7.21a22.88,22.88,0,0,0-1.57,3.75c-1,.75-5.37,2-11.12-1.08-4.25-2.3-.59-9.39-.47-9.62l12.07-21.73a4.48,4.48,0,0,0-1.78-6.11,4.54,4.54,0,0,0-6.15,1.76l-12.1,21.78c-2.82,5.25-5.59,16.55,4.09,21.8a24.54,24.54,0,0,0,11.57,3.1,19,19,0,0,0,3.14-.28,12.08,12.08,0,0,0,6.41,8.42,24.52,24.52,0,0,0,11.57,3.1,18.24,18.24,0,0,0,5.44-.8,10.58,10.58,0,0,0,6.55-5L175.46,690Zm40,14a4.5,4.5,0,1,0-1-8.93c-.84.1-18.57,2.33-24.84,15.76l-6.42-2.08a4.5,4.5,0,1,0-2.8,8.55l7.09,2.29c-.75,15.52,13.54,27,20,29.17a4.5,4.5,0,1,0,2.86-8.53c-2.49-.82-12.61-7.86-13.77-17.68l16.21,5.24a4.5,4.5,0,1,0,2.8-8.55l-17.3-5.59C194.92,701.6,207.23,700,207.38,700Zm85.16,8.29-36.2-3.74a4.5,4.5,0,1,0-.94,8.94l12.32,1.27-2.8,38.89a4.51,4.51,0,0,0,4.19,4.8h.33a4.51,4.51,0,0,0,4.51-4.17l2.77-38.6,14.87,1.54.47,0a4.49,4.49,0,0,0,.46-9Zm55.68-1.82A23.88,23.88,0,0,0,333.37,711a12.65,12.65,0,0,0-10-4.82c-6.58-.05-12.61,2-16.48,6a10.74,10.74,0,0,0-3.5,7.78l1.18,30,9-.35-1.19-29.79c.21-1,3.48-4.59,10.37-4.59h.4c3.08.06,4.44,3.14,5,5.7l.48,12.16v17.36a4.51,4.51,0,0,0,4.52,4.5h0a4.51,4.51,0,0,0,4.52-4.49v-.52l.68,0-.67-16.73v-8.91a24.18,24.18,0,0,0-.47-4.27c.39-1.11,3.75-4.72,10.71-4.47,5.28.11,5.53,9.1,5.53,9.1l0,26.12a4.51,4.51,0,0,0,4.52,4.5h0a4.51,4.51,0,0,0,4.52-4.49l0-26.18C362.54,718.37,359.42,706.7,348.22,706.47Zm79.59,16.4c0,12.19-11.84,22.1-26.4,22.1s-26.4-9.91-26.4-22.1,11.84-22.1,26.4-22.1S427.81,710.69,427.81,722.87Zm-9,0c0-7.23-7.78-13.11-17.35-13.11s-17.35,5.88-17.35,13.11S391.85,736,401.42,736,418.76,730.1,418.76,722.87Zm101.59-21.54a4.53,4.53,0,0,0-6-2.33c-2.08.9-14.45,2.4-22-4.06l15.33-6.74a4.49,4.49,0,0,0,2.31-5.93,4.54,4.54,0,0,0-6-2.29l-16.46,7.24c-2-9,5.88-18.24,6.07-18.46a4.48,4.48,0,0,0-.43-6.34,4.54,4.54,0,0,0-6.39.42c-.55.62-12.1,14-7.66,28.07l-6,2.65a4.49,4.49,0,0,0,1.83,8.61,4.54,4.54,0,0,0,1.83-.39l6.72-3c6.38,7.73,16.2,10.12,24.06,10.12A28,28,0,0,0,518,707.24,4.48,4.48,0,0,0,520.35,701.33Zm-40.51,19.45a4.5,4.5,0,0,1-4.29,4.71h-.23a4.51,4.51,0,0,1-4.51-4.24c0-.15-.37-4.61-3.37-7-1.86-1.5-4.57-2-8.06-1.51a4.45,4.45,0,0,1-.52,0,44.38,44.38,0,0,1-9.11,4.66l4.21,11.85a4.49,4.49,0,0,1-2.76,5.74,4.53,4.53,0,0,1-5.77-2.74l-4.27-12q-2.6.73-5.5,1.41a4.5,4.5,0,1,1-2.09-8.74q2.45-.58,4.57-1.17l-7.52-21.18,3.2-1.88c7.06-4.14,22.46-8.69,30.27,3.74,3,4.75,2.82,8.76,1.95,11.56a16.36,16.36,0,0,1,7.21,3.37C479.24,712.25,479.8,719.92,479.84,720.78Zm-22.57-19.19c.21-.5.76-1.84-.87-4.43-3.5-5.56-10.51-3.94-14.67-2.31l5,14.05C454.63,705.76,456.72,702.93,457.27,701.59Z" transform="translate(-39.08 -14.21)"/></svg>